<?xml version="1.0" encoding="UTF-8"?>
<svg id="Layer_3" xmlns="http://www.w3.org/2000/svg" version="1.1" viewBox="0 0 100 100">
  <!-- Generator: Adobe Illustrator 30.7.0, SVG Export Plug-In . SVG Version: 2.1.4 Build 114)  -->
  <defs>
    <style>
      .st0 {
        fill: #B9FFBB;
      }
    </style>
  </defs>
  
  <g transform="translate(-6.2588 -6.2588) scale(1.125176)"><path class="st0" d="M56.01,82h-12.01c-2.16,0-3.9-1.75-3.9-3.9v-3.89c0-.25-.1-.48-.27-.66l-7.95-9.76c-1.38-1.7-.17-4.25,2.02-4.25h32.22c2.19,0,3.4,2.55,2.02,4.25l-7.95,9.76c-.17.17-.27.41-.27.66v3.89c0,2.16-1.75,3.9-3.9,3.9Z"/>
  <path class="st0" d="M62.42,52.61c-.77,0-1.55-.29-2.14-.88-2.75-2.75-6.4-4.26-10.28-4.26s-7.54,1.51-10.28,4.26c-1.18,1.18-3.09,1.18-4.27,0-1.18-1.18-1.18-3.09,0-4.27,3.89-3.89,9.06-6.03,14.56-6.03s10.67,2.14,14.56,6.03c1.18,1.18,1.18,3.09,0,4.27-.59.59-1.36.88-2.14.88Z"/>
  <path class="st0" d="M70.7,44.33c-.77,0-1.55-.29-2.14-.88-4.96-4.96-11.55-7.69-18.56-7.69s-13.61,2.73-18.56,7.69c-1.18,1.18-3.09,1.18-4.27,0-1.18-1.18-1.18-3.09,0-4.27,6.1-6.1,14.21-9.46,22.84-9.46s16.74,3.36,22.84,9.46c1.18,1.18,1.18,3.09,0,4.27-.59.59-1.36.88-2.14.88Z"/>
  <path class="st0" d="M78.98,36.05c-.77,0-1.55-.29-2.14-.88-7.17-7.17-16.7-11.12-26.84-11.12s-19.67,3.95-26.84,11.12c-1.18,1.18-3.09,1.18-4.27,0-1.18-1.18-1.18-3.09,0-4.27,8.31-8.31,19.36-12.89,31.12-12.89s22.8,4.58,31.12,12.89c1.18,1.18,1.18,3.09,0,4.27-.59.59-1.36.88-2.14.88Z"/>
  <path class="st0" d="M56.06,57.53c.27,0,.45-.3.31-.53-1.34-2.1-3.69-3.5-6.37-3.5s-5.03,1.4-6.37,3.5c-.15.23.03.53.31.53h12.12Z"/>
  </g>
</svg>