<svg width="128" height="18" viewBox="0 0 128 18" fill="none" xmlns="http://www.w3.org/2000/svg">
<path d="M114.137 11.4C115.769 12.744 117.561 13.416 119.513 13.416C120.121 13.416 120.641 13.328 121.073 13.152C121.521 12.96 121.745 12.704 121.745 12.384C121.745 12.192 121.609 12.016 121.337 11.856C121.065 11.696 120.545 11.496 119.777 11.256C116.081 10.312 114.233 8.61601 114.233 6.168C114.233 4.296 114.969 2.84 116.441 1.79999C117.913 0.759991 119.793 0.23999 122.081 0.23999C123.953 0.23999 125.705 0.487991 127.337 0.983992L126.833 5.424C125.521 4.832 124.113 4.536 122.609 4.536C121.953 4.536 121.361 4.632 120.833 4.824C120.305 5 120.041 5.248 120.041 5.568C120.041 5.792 120.161 5.976 120.401 6.12C120.641 6.248 121.153 6.424 121.937 6.648C123.777 7.09601 125.153 7.72001 126.065 8.52001C126.977 9.30401 127.433 10.304 127.433 11.52C127.433 13.456 126.697 14.984 125.225 16.104C123.769 17.208 121.913 17.76 119.657 17.76C118.185 17.76 116.737 17.56 115.313 17.16C113.905 16.744 112.785 16.216 111.953 15.576L114.137 11.4Z" fill="#262626"/>
<path d="M97.563 17.3999L99.939 0.599854H113.235L112.611 5.42387H104.811L104.595 6.95987H110.955L110.427 10.7279H104.043L103.779 12.5519H111.579L110.907 17.3999H97.563Z" fill="#262626"/>
<path d="M83.3086 5.42387L84.0286 0.599854H98.3806L97.7806 5.42387H93.3646L91.6606 17.3999H86.0206L87.7006 5.42387H83.3086Z" fill="#262626"/>
<path d="M74.5259 17.3999L76.8779 0.599854H82.4219L80.0699 17.3999H74.5259Z" fill="#262626"/>
<path d="M58.4805 17.3999L60.8565 0.599854H68.5605C70.3845 0.599854 71.8325 0.983855 72.9045 1.75186C73.9925 2.50386 74.5365 3.59186 74.5365 5.01586C74.5365 6.23187 74.2165 7.35987 73.5765 8.39987C72.9525 9.43987 72.0885 10.1839 70.9845 10.6319L73.2645 17.3999H67.6245L65.8725 12.2159H64.7685L64.0245 17.3999H58.4805ZM65.2725 8.51987H66.5925C67.1685 8.51987 67.6725 8.35187 68.1045 8.01587C68.5525 7.67987 68.7765 7.23987 68.7765 6.69587C68.7765 5.73587 68.2485 5.25586 67.1925 5.25586H65.7525L65.2725 8.51987Z" fill="#262626"/>
<path d="M41.8137 5.424C42.6937 3.872 43.8937 2.624 45.4137 1.67999C46.9337 0.719991 48.5657 0.23999 50.3097 0.23999C52.5818 0.23999 54.4138 0.943992 55.8058 2.35199C57.2138 3.744 57.9178 5.512 57.9178 7.65601C57.9178 9.38401 57.4778 11.024 56.5978 12.576C55.7178 14.128 54.5178 15.384 52.9978 16.344C51.4778 17.288 49.8377 17.76 48.0777 17.76C45.8217 17.76 43.9897 17.064 42.5817 15.672C41.1737 14.264 40.4697 12.48 40.4697 10.32C40.4697 8.60801 40.9177 6.97601 41.8137 5.424ZM46.6857 11.88C47.1497 12.408 47.7737 12.672 48.5577 12.672C49.6137 12.672 50.5177 12.184 51.2698 11.208C52.0378 10.232 52.4218 9.19201 52.4218 8.08801C52.4218 7.30401 52.1818 6.648 51.7018 6.12C51.2377 5.592 50.6137 5.328 49.8297 5.328C48.7897 5.328 47.8857 5.816 47.1177 6.792C46.3657 7.76801 45.9897 8.80001 45.9897 9.88801C45.9897 10.704 46.2217 11.368 46.6857 11.88Z" fill="#262626"/>
<path d="M25.5024 0.599854H31.1905L32.9425 6.59987H33.1825L36.6145 0.599854H42.3985L31.9105 17.9999H31.1185L25.5024 0.599854Z" fill="#262626"/>
<path d="M22.0179 0H22.8099L28.4019 17.4H22.7139L22.3539 16.176H17.9859L17.2659 17.4H11.5059L22.0179 0ZM21.6099 13.728L20.9859 11.016H20.7939L19.4259 13.728H21.6099Z" fill="#262626"/>
<path d="M0.5 17.3999L2.87601 0.599854H16.148L15.5 5.42387H7.74802L7.43602 7.55987H13.748L13.172 11.9039H6.83601L6.04401 17.3999H0.5Z" fill="#262626"/>
</svg>
