<svg width="78" height="58" viewBox="0 0 78 58" fill="none" xmlns="http://www.w3.org/2000/svg">
<g clip-path="url(#clip0_1689_1280)">
<path d="M41.8239 54.2007C17.1229 54.3769 0.843467 44.5459 0.984414 27.8436C0.984414 22.3114 2.67578 17.5192 6.02328 13.5375C9.37077 9.55571 14.1277 6.56058 20.2237 4.55209C26.3197 2.54359 33.4727 1.52172 41.7534 1.52172C47.0742 1.52172 51.9368 1.76838 56.3414 2.29693C60.746 2.82548 65.4325 3.67117 70.4714 4.83398L69.2381 21.9943C66.3839 20.5496 62.6136 19.422 57.8566 18.5763C53.0996 17.7306 48.0608 17.3078 42.7753 17.3078C36.2917 17.3078 31.1824 18.224 27.4473 20.021C23.7122 21.8181 21.8446 24.4256 21.8446 27.8436C21.8446 31.0502 23.6417 33.5872 27.2006 35.5252C30.7595 37.4633 35.6927 38.4499 41.9648 38.4499C48.2017 38.4499 53.3815 37.1461 57.5042 34.5738V31.6844H45.0657C42.3524 31.6844 40.0973 32.0016 38.3002 32.6006L38.5116 25.4123H76.4616V44.3697C72.938 47.4353 68.181 49.8314 62.1907 51.558C56.2005 53.3198 49.3998 54.2007 41.8239 54.2007Z" fill="#C0F2FF"/>
<path d="M101.478 55.5007C95.8495 55.5007 91.3933 54.7736 88.1098 53.3195C84.8732 51.8654 82.5513 49.9656 81.1441 47.6203C79.7369 45.2749 79.0333 42.7419 79.0333 40.0213C79.0333 35.8934 80.4874 32.5396 83.3956 29.9597C86.3039 27.3798 90.9477 26.0664 97.3271 26.0195L112.244 25.8787V22.1496H108.374V24.0494C103.589 24.237 98.875 24.4246 94.2312 24.6123C89.5874 24.7999 84.967 24.7295 80.3701 24.4012C79.1974 17.0836 79.3147 10.0007 80.7219 3.15219C82.0822 3.15219 83.724 3.17565 85.6472 3.22255C87.6173 3.26946 89.6812 3.33982 91.8389 3.43364C94.0436 3.48054 96.2013 3.52745 98.3121 3.57436C100.423 3.62127 102.299 3.66818 103.941 3.71508C103.331 5.1223 102.979 6.52951 102.886 7.93673C102.839 9.34395 103.05 10.7043 103.519 12.0177C103.753 8.12436 105.231 5.42719 107.952 3.92616C110.672 2.42513 114.519 1.67462 119.491 1.67462C125.917 1.67462 130.842 2.61276 134.267 4.48905C137.691 6.31843 139.966 9.06251 141.092 12.7213C141.654 14.4568 141.889 16.3331 141.795 18.3501C141.748 20.3202 141.608 22.2434 141.373 24.1197C141.138 25.996 141.021 27.6847 141.021 29.1857C141.021 32.0471 141.467 34.0875 142.358 35.3071C143.296 36.4798 144.281 37.2538 145.313 37.629C145.735 38.9893 145.97 40.7014 146.017 42.7654C146.111 44.8293 146.064 46.8932 145.876 48.9571C145.688 51.021 145.36 52.8035 144.891 54.3045C142.827 54.7736 140.669 55.0785 138.418 55.2192C136.166 55.4069 134.337 55.5007 132.93 55.5007C129.365 55.5007 126.574 55.0785 124.557 54.2342C122.54 53.3898 121.531 51.8419 121.531 49.5904C121.531 48.7929 121.672 47.9486 121.953 47.0574C122.282 46.1661 122.657 45.2045 123.079 44.1726L121.25 43.2579C120.405 45.3218 119.233 47.2919 117.732 49.1682C116.278 51.0445 114.237 52.569 111.61 53.7416C109.03 54.9143 105.653 55.5007 101.478 55.5007ZM108.374 34.8849H112.244V30.4522H108.374V34.8849Z" fill="#E4FFBB"/>
<path d="M148.729 3.96405C148.729 3.2424 149.065 2.78536 149.739 2.59292C150.316 2.44859 150.918 2.37642 151.543 2.37642C152.217 2.37642 152.842 2.44859 153.419 2.59292C154.43 2.83347 155.007 3.4589 155.151 4.46921C155.632 7.06715 156.21 11.3008 156.883 17.1702C157.509 22.2218 158.11 24.7476 158.687 24.7476C159.265 24.7476 159.866 22.2218 160.491 17.1702C161.165 11.3008 161.742 7.06715 162.223 4.46921C162.368 3.4589 162.945 2.83347 163.955 2.59292C164.533 2.44859 165.158 2.37642 165.832 2.37642C166.457 2.37642 167.058 2.44859 167.636 2.59292C168.309 2.78536 168.646 3.2424 168.646 3.96405C169.127 18.3008 169.368 34.1771 169.368 51.5929C169.368 52.3627 169.007 52.8678 168.285 53.1084C167.852 53.2527 167.131 53.3249 166.12 53.3249C164.773 53.3249 163.883 53.2527 163.45 53.1084C162.729 52.8678 162.368 52.4349 162.368 51.8094C162.368 51.7613 162.368 51.6892 162.368 51.5929C163.186 46.3971 163.595 41.8026 163.595 37.8094C163.595 29.1015 163.33 24.7476 162.801 24.7476C162.656 24.7476 162.512 24.9641 162.368 25.397C162.271 25.7819 162.151 26.3592 162.007 27.129C161.911 27.8988 161.814 28.6926 161.718 29.5105C161.67 30.2802 161.574 31.2424 161.43 32.3971C161.333 33.5517 161.237 34.5139 161.141 35.2837C160.66 39.1806 160.371 41.4417 160.275 42.0672C160.034 43.318 159.505 43.9434 158.687 43.9434C157.869 43.9434 157.34 43.318 157.1 42.0672C157.003 41.4417 156.715 39.1806 156.234 35.2837C155.608 28.2596 155.055 24.7476 154.574 24.7476C154.045 24.7476 153.78 29.1015 153.78 37.8094C153.78 41.8026 154.189 46.3971 155.007 51.5929C155.007 51.6892 155.007 51.7613 155.007 51.8094C155.007 52.4349 154.646 52.8678 153.924 53.1084C153.491 53.2527 152.601 53.3249 151.254 53.3249C150.244 53.3249 149.522 53.2527 149.089 53.1084C148.368 52.8678 148.007 52.3627 148.007 51.5929C148.007 34.1771 148.247 18.3008 148.729 3.96405Z" fill="#FE9CA4"/>
<path d="M203.602 53.4259L192.409 53.9022C162.165 53.9022 166.848 1.66921 189.313 1.66921C198.839 1.66921 205.031 12.0682 205.031 12.6238C193.044 24.6104 190.504 30.5641 190.027 33.263C190.901 33.9775 191.933 34.3744 193.203 34.3744C198.362 34.3744 200.585 31.9929 203.443 29.1352C200.823 31.8342 200.744 50.5682 203.602 53.4259ZM188.916 11.2744C186.773 13.4177 185.344 24.2135 187.963 30.2465C189.313 27.3888 191.536 13.9733 188.916 11.2744Z" fill="#E4BBFF"/>
<path d="M239.302 54.1909C228.694 54.1909 215.848 51.9538 207.116 48.7063V26.1909C213.683 31.9641 227.322 35.2837 240.023 35.2837C244.786 35.2837 249.261 34.8507 249.261 32.7579C249.261 25.6857 206.972 36.5105 206.972 15.5826C206.972 6.27333 215.92 1.51044 226.601 1.51044C239.879 1.51044 248.828 9.30426 248.828 17.9641H250.343L250.415 2.59292H271.271V25.9022H250.343C250.343 22.294 244.065 20.995 238.364 20.995C233.673 20.995 230.498 22.1496 230.498 23.8094C230.498 29.8713 273.147 21.3558 273.147 39.1084C273.147 50.4383 256.188 54.1909 239.302 54.1909Z" fill="#FFCF75"/>
<path d="M282.048 36.294C280.893 36.294 279.955 35.2837 279.666 34.129C277.501 27.129 274.975 15.4383 274.975 9.66508C274.975 3.96405 277.862 0.644461 282.12 0.644461C286.378 0.644461 289.192 3.81972 289.192 9.66508C289.192 15.1496 286.666 27.3455 284.573 34.129C284.213 35.3558 283.347 36.294 282.048 36.294ZM282.12 54.1187C277.646 54.1187 274.903 50.8713 274.903 47.1187C274.903 43.3661 277.646 40.1187 282.12 40.1187C286.45 40.1187 289.336 43.4383 289.336 47.1187C289.336 50.8713 286.522 54.1187 282.12 54.1187Z" fill="#FFA3E3"/>
</g>
<defs>
<clipPath id="clip0_1689_1280">
<rect width="78" height="58" fill="white"/>
</clipPath>
</defs>
</svg>
