<svg width="291" height="173" viewBox="0 0 291 173" fill="none" xmlns="http://www.w3.org/2000/svg">
<path d="M41.8239 54.2007C17.1229 54.3769 0.843467 44.5459 0.984414 27.8436C0.984414 22.3114 2.67578 17.5192 6.02328 13.5375C9.37077 9.55571 14.1277 6.56058 20.2237 4.55209C26.3197 2.54359 33.4727 1.52172 41.7534 1.52172C47.0742 1.52172 51.9368 1.76838 56.3414 2.29693C60.746 2.82548 65.4325 3.67117 70.4714 4.83398L69.2381 21.9943C66.3839 20.5496 62.6136 19.422 57.8566 18.5763C53.0996 17.7306 48.0608 17.3078 42.7753 17.3078C36.2917 17.3078 31.1824 18.224 27.4473 20.021C23.7122 21.8181 21.8446 24.4256 21.8446 27.8436C21.8446 31.0502 23.6417 33.5872 27.2006 35.5252C30.7595 37.4633 35.6927 38.4499 41.9648 38.4499C48.2017 38.4499 53.3815 37.1461 57.5042 34.5738V31.6844H45.0657C42.3524 31.6844 40.0973 32.0016 38.3002 32.6006L38.5116 25.4123H76.4616V44.3697C72.938 47.4353 68.181 49.8314 62.1907 51.558C56.2005 53.3198 49.3998 54.2007 41.8239 54.2007Z" fill="#C0F2FF"/>
<path d="M101.478 55.5007C95.8495 55.5007 91.3933 54.7736 88.1098 53.3195C84.8732 51.8654 82.5513 49.9656 81.1441 47.6203C79.7369 45.2749 79.0333 42.7419 79.0333 40.0213C79.0333 35.8934 80.4874 32.5396 83.3956 29.9597C86.3039 27.3798 90.9477 26.0664 97.3271 26.0195L112.244 25.8787V22.1496H108.374V24.0494C103.589 24.237 98.875 24.4246 94.2312 24.6123C89.5874 24.7999 84.967 24.7295 80.3701 24.4012C79.1974 17.0836 79.3147 10.0007 80.7219 3.15219C82.0822 3.15219 83.724 3.17565 85.6472 3.22255C87.6173 3.26946 89.6812 3.33982 91.8389 3.43364C94.0436 3.48054 96.2013 3.52745 98.3121 3.57436C100.423 3.62127 102.299 3.66818 103.941 3.71508C103.331 5.1223 102.979 6.52951 102.886 7.93673C102.839 9.34395 103.05 10.7043 103.519 12.0177C103.753 8.12436 105.231 5.42719 107.952 3.92616C110.672 2.42513 114.519 1.67462 119.491 1.67462C125.917 1.67462 130.842 2.61276 134.267 4.48905C137.691 6.31843 139.966 9.06251 141.092 12.7213C141.654 14.4568 141.889 16.3331 141.795 18.3501C141.748 20.3202 141.608 22.2434 141.373 24.1197C141.138 25.996 141.021 27.6847 141.021 29.1857C141.021 32.0471 141.467 34.0875 142.358 35.3071C143.296 36.4798 144.281 37.2538 145.313 37.629C145.735 38.9893 145.97 40.7014 146.017 42.7654C146.111 44.8293 146.064 46.8932 145.876 48.9571C145.688 51.021 145.36 52.8035 144.891 54.3045C142.827 54.7736 140.669 55.0785 138.418 55.2192C136.166 55.4069 134.337 55.5007 132.93 55.5007C129.365 55.5007 126.574 55.0785 124.557 54.2342C122.54 53.3898 121.531 51.8419 121.531 49.5904C121.531 48.7929 121.672 47.9486 121.953 47.0574C122.282 46.1661 122.657 45.2045 123.079 44.1726L121.25 43.2579C120.405 45.3218 119.233 47.2919 117.732 49.1682C116.278 51.0445 114.237 52.569 111.61 53.7416C109.03 54.9143 105.653 55.5007 101.478 55.5007ZM108.374 34.8849H112.244V30.4522H108.374V34.8849Z" fill="#E4FFBB"/>
<path d="M148.729 3.96405C148.729 3.2424 149.065 2.78536 149.739 2.59292C150.316 2.44859 150.918 2.37642 151.543 2.37642C152.217 2.37642 152.842 2.44859 153.419 2.59292C154.43 2.83347 155.007 3.4589 155.151 4.46921C155.632 7.06715 156.21 11.3008 156.883 17.1702C157.509 22.2218 158.11 24.7476 158.687 24.7476C159.265 24.7476 159.866 22.2218 160.491 17.1702C161.165 11.3008 161.742 7.06715 162.223 4.46921C162.368 3.4589 162.945 2.83347 163.955 2.59292C164.533 2.44859 165.158 2.37642 165.832 2.37642C166.457 2.37642 167.058 2.44859 167.636 2.59292C168.309 2.78536 168.646 3.2424 168.646 3.96405C169.127 18.3008 169.368 34.1771 169.368 51.5929C169.368 52.3627 169.007 52.8678 168.285 53.1084C167.852 53.2527 167.131 53.3249 166.12 53.3249C164.773 53.3249 163.883 53.2527 163.45 53.1084C162.729 52.8678 162.368 52.4349 162.368 51.8094C162.368 51.7613 162.368 51.6892 162.368 51.5929C163.186 46.3971 163.595 41.8026 163.595 37.8094C163.595 29.1015 163.33 24.7476 162.801 24.7476C162.656 24.7476 162.512 24.9641 162.368 25.397C162.271 25.7819 162.151 26.3592 162.007 27.129C161.911 27.8988 161.814 28.6926 161.718 29.5105C161.67 30.2802 161.574 31.2424 161.43 32.3971C161.333 33.5517 161.237 34.5139 161.141 35.2837C160.66 39.1806 160.371 41.4417 160.275 42.0672C160.034 43.318 159.505 43.9434 158.687 43.9434C157.869 43.9434 157.34 43.318 157.1 42.0672C157.003 41.4417 156.715 39.1806 156.234 35.2837C155.608 28.2596 155.055 24.7476 154.574 24.7476C154.045 24.7476 153.78 29.1015 153.78 37.8094C153.78 41.8026 154.189 46.3971 155.007 51.5929C155.007 51.6892 155.007 51.7613 155.007 51.8094C155.007 52.4349 154.646 52.8678 153.924 53.1084C153.491 53.2527 152.601 53.3249 151.254 53.3249C150.244 53.3249 149.522 53.2527 149.089 53.1084C148.368 52.8678 148.007 52.3627 148.007 51.5929C148.007 34.1771 148.247 18.3008 148.729 3.96405Z" fill="#FE9CA4"/>
<path d="M203.602 53.4259L192.409 53.9022C162.165 53.9022 166.848 1.66921 189.313 1.66921C198.839 1.66921 205.031 12.0682 205.031 12.6238C193.044 24.6104 190.504 30.5641 190.027 33.263C190.901 33.9775 191.933 34.3744 193.203 34.3744C198.362 34.3744 200.585 31.9929 203.443 29.1352C200.823 31.8342 200.744 50.5682 203.602 53.4259ZM188.916 11.2744C186.773 13.4177 185.344 24.2135 187.963 30.2465C189.313 27.3888 191.536 13.9733 188.916 11.2744Z" fill="#E4BBFF"/>
<path d="M239.302 54.1909C228.694 54.1909 215.848 51.9538 207.116 48.7063V26.1909C213.683 31.9641 227.322 35.2837 240.023 35.2837C244.786 35.2837 249.261 34.8507 249.261 32.7579C249.261 25.6857 206.972 36.5105 206.972 15.5826C206.972 6.27333 215.92 1.51044 226.601 1.51044C239.879 1.51044 248.828 9.30426 248.828 17.9641H250.343L250.415 2.59292H271.271V25.9022H250.343C250.343 22.294 244.065 20.995 238.364 20.995C233.673 20.995 230.498 22.1496 230.498 23.8094C230.498 29.8713 273.147 21.3558 273.147 39.1084C273.147 50.4383 256.188 54.1909 239.302 54.1909Z" fill="#FFCF75"/>
<path d="M282.048 36.294C280.893 36.294 279.955 35.2837 279.666 34.129C277.501 27.129 274.975 15.4383 274.975 9.66508C274.975 3.96405 277.862 0.644461 282.12 0.644461C286.378 0.644461 289.192 3.81972 289.192 9.66508C289.192 15.1496 286.666 27.3455 284.573 34.129C284.213 35.3558 283.347 36.294 282.048 36.294ZM282.12 54.1187C277.646 54.1187 274.903 50.8713 274.903 47.1187C274.903 43.3661 277.646 40.1187 282.12 40.1187C286.45 40.1187 289.336 43.4383 289.336 47.1187C289.336 50.8713 286.522 54.1187 282.12 54.1187Z" fill="#FFA3E3"/>
<path d="M26.3162 112.577C18.1375 112.577 11.8591 110.653 7.48112 106.804C3.15123 102.955 0.986277 97.0859 0.986277 89.1959C0.986277 80.7285 4.32992 73.8969 11.0172 68.701C17.7526 63.5051 26.5327 60.9072 37.3574 60.9072C45.921 60.9072 53.1616 61.7972 59.0791 63.5773C60.2337 64.1065 60.6908 65.0206 60.4502 66.3196C60.354 67.0412 60.0172 69.2302 59.4399 72.8866C58.9107 76.5429 58.5258 79.0687 58.2853 80.4639C58.1409 81.2337 57.7561 81.7629 57.1306 82.0515C56.5052 82.3402 55.9279 82.2921 55.3987 81.9072C51.3093 79.9347 46.3059 78.9484 40.3884 78.9484C36.6839 78.9484 33.8213 79.8144 31.8007 81.5464C29.8282 83.2783 28.842 85.7319 28.842 88.9072C28.842 92.9484 30.6942 94.9691 34.3987 94.9691C35.5533 94.9691 36.6358 94.5601 37.6461 93.7423C38.7045 92.8763 39.2337 91.6735 39.2337 90.134C39.2337 89.0756 39.0653 88.1615 38.7286 87.3917C38.488 86.6701 38.5121 86.0687 38.8007 85.5876C39.1375 85.1065 39.6426 84.8419 40.3162 84.7938C50.7079 84.0722 58.1169 83.567 62.543 83.2783C63.1684 83.2302 63.7217 83.4227 64.2028 83.8557C64.6839 84.2405 64.9726 84.7697 65.0688 85.4433C65.6461 92.7079 65.9348 100.766 65.9348 109.619C65.9348 110.244 65.7183 110.773 65.2853 111.206C64.8523 111.639 64.299 111.904 63.6255 112C62.5189 112.096 59.464 112.144 54.4605 112.144C49.4571 112.192 46.4262 112.144 45.3677 112C44.5499 111.904 43.9244 111.663 43.4914 111.278C43.0585 110.845 42.8901 110.34 42.9863 109.763C43.3231 107.069 43.4914 105.241 43.4914 104.278C43.5396 103.076 43.299 102.45 42.7698 102.402C42.2887 102.354 41.7354 102.883 41.11 103.99C38.1753 109.715 33.244 112.577 26.3162 112.577Z" fill="#FFCF75"/>
<path d="M75.8662 112H68.7483C69.9816 108.934 71.1092 104.882 72.0606 99.8785L77.3814 73.5919C78.368 68.553 78.7908 64.536 78.6146 61.4704H87.2829C87.1419 64.7474 87.5648 68.7644 88.5162 73.5919L93.8369 99.8785C94.7883 104.776 95.9159 108.829 97.1844 112H90.0314C90.1371 108.97 89.8199 105.622 89.1504 101.958L88.3048 97.6939H77.628L76.7471 101.958C76.0776 106.08 75.7957 109.428 75.8662 112ZM81.5041 78.3841L78.6851 91.9503H87.2124L84.3935 78.4546C84.1821 77.2213 83.9706 75.7413 83.724 73.9443C83.4773 72.1824 83.2659 70.9491 83.1602 70.2092H82.7373C82.6669 70.7377 82.5259 71.9005 82.2793 73.7328C82.0326 75.6004 81.7507 77.1508 81.5041 78.3841Z" fill="#FE9CA4"/>
<path d="M100.605 113.165C100.148 111.703 99.8049 109.966 99.5764 107.955C99.3935 105.944 99.3478 103.933 99.4393 101.922C99.5307 99.9112 99.7592 98.2429 100.125 96.9175C101.176 96.6433 102.136 95.9349 103.004 94.7923C103.873 93.6039 104.307 91.6387 104.307 88.8964C104.307 86.5655 104.055 84.7601 103.553 83.4804C103.096 82.155 102.57 81.218 101.976 80.6696C101.382 80.1211 100.856 79.824 100.399 79.7783C99.942 78.2701 99.6221 76.4876 99.4393 74.4309C99.3021 72.3285 99.325 70.249 99.5078 68.1922C99.7363 66.1355 100.125 64.4445 100.673 63.1191C102.821 63.3933 105.221 63.6218 107.872 63.8046C110.523 63.9417 113.105 64.0103 115.619 64.0103C118.772 64.0103 121.743 63.9874 124.531 63.9417C127.365 63.8503 129.673 63.7589 131.455 63.6675C130.861 64.3074 130.221 65.4043 129.536 66.9582C128.896 68.4665 128.37 70.0661 127.959 71.7572C127.593 73.4483 127.479 74.9337 127.616 76.2134C128.85 72.1457 131.158 68.8778 134.54 66.4098C137.968 63.896 142.516 62.6392 148.183 62.6392C151.245 62.6392 153.805 63.0276 155.861 63.8046C157.918 64.5359 159.518 66.0441 160.66 68.3294C159.883 69.1977 159.106 70.1347 158.329 71.1402C157.553 72.1 156.821 73.1969 156.136 74.4309L157.85 75.3907C159.998 71.5972 162.877 68.535 166.488 66.2041C170.144 63.8275 174.098 62.6392 178.348 62.6392C182.004 62.6392 184.907 63.1648 187.055 64.216C189.249 65.2672 190.871 67.4153 191.922 70.6603C192.562 72.5342 192.859 74.4538 192.814 76.4191C192.768 78.3386 192.631 80.2811 192.402 82.2464C192.174 84.166 192.059 86.0856 192.059 88.0051C192.059 90.1076 192.265 91.7758 192.676 93.0098C193.088 94.1981 193.613 95.0893 194.253 95.6835C194.939 96.2777 195.601 96.689 196.241 96.9175C196.653 98.2429 196.881 99.9112 196.927 101.922C197.018 103.933 196.973 105.944 196.79 107.955C196.607 109.966 196.287 111.703 195.83 113.165C194.093 112.983 192.014 112.754 189.591 112.48C187.169 112.251 184.221 112.137 180.748 112.137C177 112.137 173.686 112.251 170.807 112.48C167.927 112.754 165.642 112.983 163.951 113.165C163.723 111.931 163.54 110.309 163.403 108.298C163.266 106.241 163.22 104.116 163.266 101.922C163.357 99.7283 163.54 97.8316 163.814 96.232V86.7711H161.277V96.232C161.597 97.8316 161.78 99.7283 161.826 101.922C161.917 104.116 161.894 106.241 161.757 108.298C161.62 110.309 161.392 111.931 161.072 113.165C159.975 113.028 158.878 112.868 157.781 112.686C156.684 112.548 155.427 112.411 154.01 112.274C152.639 112.137 150.948 112.069 148.937 112.069C146.378 112.069 143.818 112.206 141.259 112.48C138.745 112.754 136.643 112.983 134.952 113.165C134.723 111.931 134.54 110.309 134.403 108.298C134.266 106.241 134.22 104.116 134.266 101.922C134.357 99.7283 134.54 97.8316 134.815 96.232V86.7711H132.278V96.232C132.598 97.8316 132.781 99.7283 132.826 101.922C132.918 104.116 132.895 106.241 132.758 108.298C132.621 110.309 132.392 111.931 132.072 113.165C130.975 113.028 129.764 112.868 128.439 112.686C127.113 112.548 125.468 112.411 123.503 112.274C121.583 112.183 119.115 112.137 116.099 112.137C112.991 112.137 110.088 112.251 107.392 112.48C104.741 112.708 102.479 112.937 100.605 113.165Z" fill="#FFA3E3"/>
<path d="M201.29 62.9278C201.386 62.0618 201.939 61.5807 202.95 61.4845C204.345 61.3402 208.867 61.268 216.517 61.268C222.963 61.268 227.39 61.3402 229.795 61.4845C230.757 61.5807 231.311 62.0859 231.455 63C231.551 63.7216 231.719 67.4261 231.96 74.1134C231.96 74.1615 231.96 74.2337 231.96 74.3299C231.96 75.0996 231.792 75.5326 231.455 75.6289C231.118 75.677 230.902 75.701 230.805 75.701C230.324 75.701 229.867 75.3642 229.434 74.6907C227.317 71.0343 223.276 69.2062 217.311 69.2062C214.809 69.2062 212.764 69.7113 211.176 70.7216C209.637 71.6838 208.867 73.1031 208.867 74.9794V75.701C208.867 77.2886 209.445 78.5395 210.599 79.4536C211.802 80.3196 213.462 80.7526 215.579 80.7526C218.994 80.7526 222.122 80.5601 224.96 80.1752C225.008 80.1752 225.08 80.1752 225.176 80.1752C225.561 80.1752 225.898 80.3196 226.187 80.6082C226.524 80.8488 226.692 81.1856 226.692 81.6185V88.1134C226.692 88.9313 226.548 89.3883 226.259 89.4845C225.97 89.5326 225.802 89.5567 225.754 89.5567C225.321 89.5567 224.888 89.3161 224.455 88.835C222.675 87.2955 219.812 86.5258 215.867 86.5258C213.75 86.5739 212.042 87.1271 210.743 88.1856C209.445 89.244 208.795 90.9038 208.795 93.1649V95.6186C208.795 98.5051 209.709 100.646 211.537 102.041C213.414 103.388 215.771 104.062 218.609 104.062C222.025 104.062 224.623 103.557 226.403 102.546C228.183 101.488 229.699 99.6598 230.95 97.0618C231.19 96.5326 231.455 96.2199 231.744 96.1237C232.032 95.9794 232.249 95.9072 232.393 95.9072C232.634 95.9072 232.874 96.0275 233.115 96.268C233.403 96.4605 233.572 96.8454 233.62 97.4227C233.812 99.6357 234.029 104.038 234.269 110.629C234.269 110.677 234.269 110.749 234.269 110.845C234.269 111.519 233.812 111.904 232.898 112C230.252 112.192 224.792 112.289 216.517 112.289C209.012 112.289 204.08 112.192 201.723 112C200.616 111.904 200.063 111.375 200.063 110.412C200.159 90.8797 200.568 75.0515 201.29 62.9278Z" fill="#B5ED96"/>
<path d="M244.052 90.3505C246.746 91.2165 249.223 91.6495 251.485 91.6495C255.333 91.6495 257.258 91.1924 257.258 90.2783C257.258 89.701 256.584 89.3161 255.237 89.1237C253.89 88.9313 252.23 88.7148 250.258 88.4742C248.333 88.2337 246.385 87.7766 244.412 87.1031C242.488 86.4295 240.852 85.0825 239.505 83.0618C238.158 80.9931 237.485 78.323 237.485 75.0515C237.485 70.3368 239.072 66.7285 242.247 64.2268C245.471 61.677 249.68 60.402 254.876 60.402C257.33 60.402 259.88 60.7629 262.526 61.4845C265.172 62.2062 267.289 63.1203 268.876 64.2268L266.928 85.6598C263.705 83.2543 260 82.0515 255.814 82.0515C251.821 82.0515 249.825 82.6048 249.825 83.7113C249.825 84.1924 250.186 84.5533 250.907 84.7938C251.677 85.0344 252.639 85.2027 253.794 85.299C254.997 85.3952 256.296 85.5155 257.691 85.6598C259.134 85.756 260.553 86.0687 261.948 86.5979C263.392 87.079 264.691 87.7526 265.845 88.6185C267.048 89.4364 268.01 90.6873 268.732 92.3711C269.502 94.0069 269.887 95.9794 269.887 98.2887C269.887 103.052 268.251 106.708 264.979 109.258C261.708 111.808 257.522 113.082 252.423 113.082C246.409 113.082 241.309 112.096 237.124 110.124V86.9588C239 88.4021 241.309 89.5326 244.052 90.3505Z" fill="#B1BFFF"/>
<path d="M273.361 63.2165C273.361 62.7354 273.529 62.3264 273.866 61.9897C274.251 61.6048 274.708 61.3883 275.237 61.3402C276.728 61.1959 278.581 61.1237 280.794 61.1237C282.911 61.1237 284.691 61.1959 286.134 61.3402C286.663 61.3883 287.096 61.6048 287.433 61.9897C287.818 62.3264 288.01 62.7354 288.01 63.2165C287.818 72.7904 286.952 82.8935 285.412 93.5258C285.22 94.5361 284.642 95.1134 283.68 95.2577C282.67 95.4021 281.708 95.4742 280.794 95.4742C279.88 95.4742 278.869 95.4021 277.763 95.2577C277.33 95.2096 276.945 95.0172 276.608 94.6804C276.319 94.3436 276.151 93.9828 276.103 93.5979C274.467 81.9072 273.553 71.7801 273.361 63.2165ZM275.526 99.1546C276.825 97.8076 278.508 97.134 280.577 97.134C282.694 97.134 284.402 97.8076 285.701 99.1546C287 100.502 287.649 102.402 287.649 104.856C287.649 107.165 287 108.969 285.701 110.268C284.354 111.615 282.646 112.289 280.577 112.289C278.508 112.289 276.825 111.639 275.526 110.34C274.227 108.993 273.577 107.141 273.577 104.784C273.577 102.378 274.227 100.502 275.526 99.1546Z" fill="#C0F2FF"/>
<path d="M27.1379 172.072C12.9339 172.072 0.940891 160.548 0.940891 146.411C0.940891 131.872 12.5989 120.482 27.2719 120.482C31.2919 120.482 35.3119 121.956 37.8579 123.564L38.0589 123.162C38.9969 121.286 40.0689 120.549 41.6099 120.549C44.0219 120.549 45.4289 121.621 45.9649 124.569L48.1759 137.031C48.7119 139.979 47.0369 142.525 44.6919 142.525C42.8829 142.525 41.5429 141.855 40.3369 140.314L37.8579 137.031C34.7089 132.81 31.3589 129.527 26.8699 129.46C21.2419 129.393 18.8299 134.284 18.8299 140.247C18.8299 150.096 24.2569 160.615 31.9619 160.615C33.7709 160.615 35.7139 159.744 35.7139 157.734V153.982L31.2919 153.044C29.6169 152.709 28.5449 150.967 28.5449 149.024C28.5449 146.545 30.4209 144.803 33.3019 144.803H51.8609C54.7419 144.803 56.6179 146.545 56.6179 149.024C56.6179 150.565 55.4119 151.972 53.8709 153.044L52.4639 153.982V167.717C52.4639 170.33 50.8559 172.072 48.5779 172.072C47.2379 172.072 46.0319 171.134 44.9599 169.459L43.4189 167.114C39.5329 171 33.4359 172.072 27.1379 172.072Z" fill="#E4FFBB"/>
<path d="M60.0967 143.496C60.9607 134.616 61.9927 127.44 63.1927 121.968C63.3367 121.2 63.7927 120.744 64.5607 120.6C65.4247 120.456 66.5527 120.384 67.9447 120.384C69.2887 120.384 70.3927 120.456 71.2567 120.6C72.0247 120.744 72.4807 121.2 72.6247 121.968C73.8247 127.392 74.8567 134.544 75.7207 143.424C76.6327 152.256 77.1127 160.992 77.1607 169.632C77.1607 170.4 76.7287 170.856 75.8647 171C75.2887 171.144 74.5687 171.216 73.7047 171.216C72.7447 171.216 71.9287 171.144 71.2567 171C70.4407 170.808 70.0327 170.376 70.0327 169.704C70.0327 169.656 70.0327 169.608 70.0327 169.56C70.2247 167.784 70.3207 165.864 70.3207 163.8C70.3207 162.36 70.2727 160.848 70.1767 159.264C70.1287 158.544 69.8887 157.968 69.4567 157.536C69.0727 157.104 68.5927 156.888 68.0167 156.888H67.8007C67.1767 156.888 66.6727 157.128 66.2887 157.608C65.9047 158.04 65.6887 158.592 65.6407 159.264C65.5447 160.8 65.4967 162.312 65.4967 163.8C65.4967 165.816 65.5927 167.736 65.7847 169.56C65.7847 169.608 65.7847 169.656 65.7847 169.704C65.7847 170.376 65.3527 170.808 64.4887 171C63.9127 171.144 63.0967 171.216 62.0407 171.216C61.2247 171.216 60.5287 171.144 59.9527 171C59.0887 170.808 58.6567 170.352 58.6567 169.632C58.7047 161.088 59.1847 152.376 60.0967 143.496ZM66.6487 151.344C66.9367 151.728 67.3207 151.92 67.8007 151.92H68.0167C68.4967 151.92 68.8807 151.752 69.1687 151.416C69.5047 151.032 69.6727 150.552 69.6727 149.976C69.6727 144.648 69.3367 139.656 68.6647 135C68.4727 133.656 68.2087 132.984 67.8727 132.984C67.5367 132.984 67.2727 133.656 67.0807 135C66.4567 139.752 66.1447 144.744 66.1447 149.976C66.1447 150.552 66.3127 151.008 66.6487 151.344Z" fill="#C0F2FF"/>
<path d="M84.4541 120.6H108.07L112.966 148.824H114.19L119.158 120.6H142.774L147.382 171H122.902L126.646 141.912L125.35 141.696L117.79 165.888H109.438L101.806 141.696L100.582 141.912L104.254 171H79.7741L84.4541 120.6Z" fill="#B5ED96"/>
<path d="M181.601 149.4V147.6H197.225V171H150.785V152.856H153.521C155.105 152.856 156.329 151.632 156.329 150.12V141.48C156.329 139.968 155.105 138.744 153.521 138.744H150.857V120.6H168.641C176.777 120.6 179.657 125.784 179.657 134.424H180.953V120.6H196.721V144.432H181.097V142.2C181.097 139.752 179.585 138.744 178.001 138.744H171.665V143.424H173.609C175.049 143.424 175.625 142.92 175.625 141.336V141.048H178.721V150.552H175.625V150.264C175.625 148.68 175.049 148.176 173.609 148.176H171.665V152.856H178.505C180.089 152.856 181.601 151.848 181.601 149.4Z" fill="#FFCF75"/>
<path d="M200.632 164.422C200.632 160.275 200.704 156.128 200.847 151.981C200.895 150.98 201.204 150.336 201.776 150.05C202.396 149.717 202.873 149.55 203.206 149.55C203.683 149.55 204.136 149.741 204.565 150.122C212.335 157.129 223.489 160.632 238.027 160.632C249.086 160.632 254.615 158.869 254.615 155.341C254.615 154.102 253.662 153.125 251.755 152.41C249.848 151.647 247.37 151.099 244.319 150.765C241.268 150.432 237.908 150.146 234.237 149.907C230.567 149.621 226.873 149.192 223.155 148.62C219.485 148.048 216.124 147.286 213.073 146.332C210.023 145.331 207.544 143.83 205.637 141.828C203.731 139.826 202.777 137.395 202.777 134.535C202.777 131.961 203.612 129.744 205.28 127.885C206.948 125.979 209.308 124.477 212.358 123.381C215.457 122.285 218.936 121.498 222.797 121.021C226.658 120.497 230.996 120.235 235.81 120.235C246.059 120.235 255.282 121.617 263.481 124.382C264.625 124.763 265.197 125.526 265.197 126.67V136.751C265.197 137.752 264.887 138.444 264.267 138.825C263.695 139.206 263.219 139.397 262.837 139.397C262.456 139.397 262.075 139.278 261.693 139.039C258.261 136.608 254.305 134.702 249.824 133.319C245.391 131.889 240.935 131.174 236.454 131.174C231.64 131.174 227.612 131.58 224.37 132.39C221.129 133.2 219.508 134.463 219.508 136.179C219.508 137.466 220.462 138.491 222.368 139.254C224.323 139.969 226.825 140.469 229.876 140.755C232.974 140.994 236.382 141.232 240.1 141.47C243.818 141.661 247.536 142.019 251.254 142.543C255.02 143.02 258.428 143.711 261.479 144.616C264.577 145.522 267.08 146.976 268.986 148.978C270.941 150.932 271.918 153.339 271.918 156.199C271.918 161.157 268.986 164.994 263.123 167.711C257.26 170.38 248.966 171.715 238.241 171.715C233.427 171.715 227.516 171.238 220.509 170.285C213.55 169.284 207.52 168.164 202.42 166.924C201.228 166.638 200.632 165.804 200.632 164.422Z" fill="#FE9CA4"/>
<path d="M288.422 153.527H275.594L273.168 121.286H290.918L288.422 153.527ZM281.973 172.005C279.373 172.005 277.293 171.312 275.768 169.891C274.208 168.469 273.445 166.701 273.445 164.552C273.445 162.333 274.208 160.496 275.768 159.074C277.293 157.653 279.373 156.925 281.973 156.925C284.608 156.925 286.688 157.653 288.248 159.074C289.808 160.496 290.571 162.333 290.571 164.552C290.571 166.701 289.808 168.469 288.248 169.891C286.688 171.312 284.608 172.005 281.973 172.005Z" fill="#E4BBFF"/>
</svg>
